<mxfile host="app.diagrams.net" agent="Mozilla/5.0 (Macintosh; Intel Mac OS X 10_15_7) AppleWebKit/537.36 (KHTML, like Gecko) Chrome/128.0.0.0 Safari/537.36" version="24.7.12">
  <diagram name="Page-1" id="c0EpnyGb1v58AntvmAJK">
    <mxGraphModel dx="3058" dy="941" grid="0" gridSize="10" guides="1" tooltips="1" connect="1" arrows="1" fold="1" page="0" pageScale="1" pageWidth="827" pageHeight="1169" background="#ffffff" math="0" shadow="1">
      <root>
        <mxCell id="0" />
        <mxCell id="1" parent="0" />
        <mxCell id="pZrwfSpqMCGqTQf54EzO-1" value="MapperProxy&amp;lt;T&amp;gt;" style="swimlane;fontStyle=1;align=center;verticalAlign=top;childLayout=stackLayout;horizontal=1;startSize=26;horizontalStack=0;resizeParent=1;resizeParentMax=0;resizeLast=0;collapsible=1;marginBottom=0;whiteSpace=wrap;html=1;labelBackgroundColor=none;fillColor=default;rounded=0;" parent="1" vertex="1">
          <mxGeometry x="250" y="310" width="584" height="112" as="geometry" />
        </mxCell>
        <mxCell id="pZrwfSpqMCGqTQf54EzO-2" value="-&amp;nbsp;&lt;span style=&quot;font-family: &amp;quot;JetBrains Mono&amp;quot;, monospace; font-size: 9.8pt; background-color: rgb(30, 30, 30); color: rgb(201, 209, 217);&quot;&gt;sqlSession&lt;/span&gt;&lt;span style=&quot;background-color: initial;&quot;&gt;:&amp;nbsp;&lt;/span&gt;&lt;span style=&quot;font-family: &amp;quot;JetBrains Mono&amp;quot;, monospace; font-size: 9.8pt; background-color: rgb(30, 30, 30); color: rgb(255, 166, 87);&quot;&gt;Map&lt;/span&gt;&lt;span style=&quot;font-family: &amp;quot;JetBrains Mono&amp;quot;, monospace; font-size: 9.8pt; background-color: rgb(30, 30, 30); color: rgb(255, 123, 114);&quot;&gt;&amp;lt;&lt;/span&gt;&lt;span style=&quot;font-family: &amp;quot;JetBrains Mono&amp;quot;, monospace; font-size: 9.8pt; background-color: rgb(30, 30, 30); color: rgb(201, 209, 217);&quot;&gt;String, String&lt;/span&gt;&lt;span style=&quot;font-family: &amp;quot;JetBrains Mono&amp;quot;, monospace; font-size: 9.8pt; background-color: rgb(30, 30, 30); color: rgb(255, 123, 114);&quot;&gt;&amp;gt;&lt;/span&gt;&lt;div&gt;&lt;span style=&quot;font-family: &amp;quot;JetBrains Mono&amp;quot;, monospace; font-size: 9.8pt; background-color: rgb(30, 30, 30); color: rgb(255, 123, 114);&quot;&gt;&lt;br&gt;&lt;/span&gt;&lt;/div&gt;" style="text;strokeColor=none;fillColor=default;align=left;verticalAlign=top;spacingLeft=4;spacingRight=4;overflow=hidden;rotatable=0;points=[[0,0.5],[1,0.5]];portConstraint=eastwest;whiteSpace=wrap;html=1;labelBackgroundColor=none;rounded=0;" parent="pZrwfSpqMCGqTQf54EzO-1" vertex="1">
          <mxGeometry y="26" width="584" height="26" as="geometry" />
        </mxCell>
        <mxCell id="pZrwfSpqMCGqTQf54EzO-6" value="-&amp;nbsp;&lt;span style=&quot;font-family: &amp;quot;JetBrains Mono&amp;quot;, monospace; font-size: 9.8pt; background-color: rgb(30, 30, 30); color: rgb(201, 209, 217);&quot;&gt;mapperInterface&lt;/span&gt;&lt;span style=&quot;background-color: initial;&quot;&gt;:&amp;nbsp;&lt;/span&gt;&lt;span style=&quot;font-family: &amp;quot;JetBrains Mono&amp;quot;, monospace; font-size: 9.8pt; background-color: rgb(30, 30, 30); color: rgb(201, 209, 217);&quot;&gt;Class&lt;/span&gt;&lt;span style=&quot;font-family: &amp;quot;JetBrains Mono&amp;quot;, monospace; font-size: 9.8pt; background-color: rgb(30, 30, 30); color: rgb(255, 123, 114);&quot;&gt;&amp;lt;T&amp;gt;&lt;/span&gt;&lt;br&gt;&lt;div&gt;&lt;span style=&quot;font-family: &amp;quot;JetBrains Mono&amp;quot;, monospace; font-size: 9.8pt; background-color: rgb(30, 30, 30); color: rgb(255, 123, 114);&quot;&gt;&lt;br&gt;&lt;/span&gt;&lt;/div&gt;" style="text;strokeColor=none;fillColor=default;align=left;verticalAlign=top;spacingLeft=4;spacingRight=4;overflow=hidden;rotatable=0;points=[[0,0.5],[1,0.5]];portConstraint=eastwest;whiteSpace=wrap;html=1;labelBackgroundColor=none;rounded=0;" parent="pZrwfSpqMCGqTQf54EzO-1" vertex="1">
          <mxGeometry y="52" width="584" height="26" as="geometry" />
        </mxCell>
        <mxCell id="pZrwfSpqMCGqTQf54EzO-3" value="" style="line;strokeWidth=1;fillColor=default;align=left;verticalAlign=middle;spacingTop=-1;spacingLeft=3;spacingRight=3;rotatable=0;labelPosition=right;points=[];portConstraint=eastwest;labelBackgroundColor=none;rounded=0;" parent="pZrwfSpqMCGqTQf54EzO-1" vertex="1">
          <mxGeometry y="78" width="584" height="8" as="geometry" />
        </mxCell>
        <mxCell id="pZrwfSpqMCGqTQf54EzO-4" value="+&amp;nbsp;&lt;span style=&quot;font-family: &amp;quot;JetBrains Mono&amp;quot;, monospace; font-size: 9.8pt; background-color: rgb(30, 30, 30); color: rgb(210, 168, 255);&quot;&gt;invoke&lt;/span&gt;&lt;span style=&quot;font-family: &amp;quot;JetBrains Mono&amp;quot;, monospace; font-size: 9.8pt; background-color: rgb(30, 30, 30); color: rgb(201, 209, 217);&quot;&gt;(Object&amp;nbsp;&lt;/span&gt;&lt;span style=&quot;font-family: &amp;quot;JetBrains Mono&amp;quot;, monospace; font-size: 9.8pt; background-color: rgb(30, 30, 30); color: rgb(255, 166, 87);&quot;&gt;proxy&lt;/span&gt;&lt;span style=&quot;font-family: &amp;quot;JetBrains Mono&amp;quot;, monospace; font-size: 9.8pt; background-color: rgb(30, 30, 30); color: rgb(201, 209, 217);&quot;&gt;, Method&amp;nbsp;&lt;/span&gt;&lt;span style=&quot;font-family: &amp;quot;JetBrains Mono&amp;quot;, monospace; font-size: 9.8pt; background-color: rgb(30, 30, 30); color: rgb(255, 166, 87);&quot;&gt;method&lt;/span&gt;&lt;span style=&quot;font-family: &amp;quot;JetBrains Mono&amp;quot;, monospace; font-size: 9.8pt; background-color: rgb(30, 30, 30); color: rgb(201, 209, 217);&quot;&gt;, Object[]&amp;nbsp;&lt;/span&gt;&lt;span style=&quot;font-family: &amp;quot;JetBrains Mono&amp;quot;, monospace; font-size: 9.8pt; background-color: rgb(30, 30, 30); color: rgb(255, 166, 87);&quot;&gt;args&lt;/span&gt;&lt;span style=&quot;font-family: &amp;quot;JetBrains Mono&amp;quot;, monospace; font-size: 9.8pt; background-color: rgb(30, 30, 30); color: rgb(201, 209, 217);&quot;&gt;):&lt;/span&gt;&lt;span style=&quot;font-family: &amp;quot;JetBrains Mono&amp;quot;, monospace; font-size: 9.8pt; background-color: rgb(30, 30, 30); color: rgb(201, 209, 217);&quot;&gt;Object&lt;/span&gt;" style="text;strokeColor=none;fillColor=default;align=left;verticalAlign=top;spacingLeft=4;spacingRight=4;overflow=hidden;rotatable=0;points=[[0,0.5],[1,0.5]];portConstraint=eastwest;whiteSpace=wrap;html=1;labelBackgroundColor=none;rounded=0;" parent="pZrwfSpqMCGqTQf54EzO-1" vertex="1">
          <mxGeometry y="86" width="584" height="26" as="geometry" />
        </mxCell>
        <mxCell id="pZrwfSpqMCGqTQf54EzO-5" value="&lt;p style=&quot;margin:0px;margin-top:4px;text-align:center;&quot;&gt;&lt;i&gt;&amp;lt;&amp;lt;Interface&amp;gt;&amp;gt;&lt;/i&gt;&lt;br&gt;&lt;b&gt;InvocationHandler&lt;/b&gt;&lt;/p&gt;&lt;hr size=&quot;1&quot; style=&quot;border-style:solid;&quot;&gt;&lt;p style=&quot;margin:0px;margin-left:4px;&quot;&gt;&lt;br&gt;&lt;br&gt;&lt;/p&gt;&lt;hr size=&quot;1&quot; style=&quot;border-style:solid;&quot;&gt;&lt;p style=&quot;margin:0px;margin-left:4px;&quot;&gt;+&amp;nbsp;&lt;span style=&quot;font-family: &amp;quot;JetBrains Mono&amp;quot;, monospace; font-size: 9.8pt; background-color: rgb(30, 30, 30); color: rgb(210, 168, 255);&quot;&gt;invoke&lt;/span&gt;&lt;span style=&quot;font-family: &amp;quot;JetBrains Mono&amp;quot;, monospace; font-size: 9.8pt; background-color: rgb(30, 30, 30); color: rgb(201, 209, 217);&quot;&gt;(Object &lt;/span&gt;&lt;span style=&quot;font-family: &amp;quot;JetBrains Mono&amp;quot;, monospace; font-size: 9.8pt; background-color: rgb(30, 30, 30); color: rgb(255, 166, 87);&quot;&gt;proxy&lt;/span&gt;&lt;span style=&quot;font-family: &amp;quot;JetBrains Mono&amp;quot;, monospace; font-size: 9.8pt; background-color: rgb(30, 30, 30); color: rgb(201, 209, 217);&quot;&gt;, Method &lt;/span&gt;&lt;span style=&quot;font-family: &amp;quot;JetBrains Mono&amp;quot;, monospace; font-size: 9.8pt; background-color: rgb(30, 30, 30); color: rgb(255, 166, 87);&quot;&gt;method&lt;/span&gt;&lt;span style=&quot;font-family: &amp;quot;JetBrains Mono&amp;quot;, monospace; font-size: 9.8pt; background-color: rgb(30, 30, 30); color: rgb(201, 209, 217);&quot;&gt;, Object[] &lt;/span&gt;&lt;span style=&quot;font-family: &amp;quot;JetBrains Mono&amp;quot;, monospace; font-size: 9.8pt; background-color: rgb(30, 30, 30); color: rgb(255, 166, 87);&quot;&gt;args&lt;/span&gt;&lt;span style=&quot;font-family: &amp;quot;JetBrains Mono&amp;quot;, monospace; font-size: 9.8pt; background-color: rgb(30, 30, 30); color: rgb(201, 209, 217);&quot;&gt;):&lt;/span&gt;&lt;span style=&quot;font-family: &amp;quot;JetBrains Mono&amp;quot;, monospace; font-size: 9.8pt; background-color: rgb(30, 30, 30); color: rgb(201, 209, 217);&quot;&gt;Object&lt;/span&gt;&lt;/p&gt;" style="verticalAlign=top;align=left;overflow=fill;html=1;whiteSpace=wrap;labelBackgroundColor=none;fillColor=default;rounded=0;" parent="1" vertex="1">
          <mxGeometry x="292" y="70" width="500" height="140" as="geometry" />
        </mxCell>
        <mxCell id="pZrwfSpqMCGqTQf54EzO-7" value="" style="endArrow=block;dashed=1;endFill=0;endSize=12;html=1;rounded=0;entryX=0.5;entryY=1;entryDx=0;entryDy=0;exitX=0.5;exitY=0;exitDx=0;exitDy=0;edgeStyle=orthogonalEdgeStyle;" parent="1" source="pZrwfSpqMCGqTQf54EzO-1" target="pZrwfSpqMCGqTQf54EzO-5" edge="1">
          <mxGeometry width="160" relative="1" as="geometry">
            <mxPoint x="550" y="370" as="sourcePoint" />
            <mxPoint x="710" y="370" as="targetPoint" />
          </mxGeometry>
        </mxCell>
        <mxCell id="pZrwfSpqMCGqTQf54EzO-8" value="MapperProxyFactory&amp;lt;T&amp;gt;" style="swimlane;fontStyle=1;align=center;verticalAlign=top;childLayout=stackLayout;horizontal=1;startSize=26;horizontalStack=0;resizeParent=1;resizeParentMax=0;resizeLast=0;collapsible=1;marginBottom=0;whiteSpace=wrap;html=1;labelBackgroundColor=none;fillColor=default;rounded=0;" parent="1" vertex="1">
          <mxGeometry x="250" y="590" width="584" height="112" as="geometry" />
        </mxCell>
        <mxCell id="pZrwfSpqMCGqTQf54EzO-9" value="" style="text;strokeColor=none;fillColor=default;align=left;verticalAlign=top;spacingLeft=4;spacingRight=4;overflow=hidden;rotatable=0;points=[[0,0.5],[1,0.5]];portConstraint=eastwest;whiteSpace=wrap;html=1;labelBackgroundColor=none;rounded=0;" parent="pZrwfSpqMCGqTQf54EzO-8" vertex="1">
          <mxGeometry y="26" width="584" height="26" as="geometry" />
        </mxCell>
        <mxCell id="pZrwfSpqMCGqTQf54EzO-10" value="-&amp;nbsp;&lt;span style=&quot;font-family: &amp;quot;JetBrains Mono&amp;quot;, monospace; font-size: 9.8pt; background-color: rgb(30, 30, 30); color: rgb(201, 209, 217);&quot;&gt;mapperInterface&lt;/span&gt;&lt;span style=&quot;background-color: initial;&quot;&gt;:&amp;nbsp;&lt;/span&gt;&lt;span style=&quot;font-family: &amp;quot;JetBrains Mono&amp;quot;, monospace; font-size: 9.8pt; background-color: rgb(30, 30, 30); color: rgb(201, 209, 217);&quot;&gt;Class&lt;/span&gt;&lt;span style=&quot;font-family: &amp;quot;JetBrains Mono&amp;quot;, monospace; font-size: 9.8pt; background-color: rgb(30, 30, 30); color: rgb(255, 123, 114);&quot;&gt;&amp;lt;T&amp;gt;&lt;/span&gt;&lt;br&gt;&lt;div&gt;&lt;span style=&quot;font-family: &amp;quot;JetBrains Mono&amp;quot;, monospace; font-size: 9.8pt; background-color: rgb(30, 30, 30); color: rgb(255, 123, 114);&quot;&gt;&lt;br&gt;&lt;/span&gt;&lt;/div&gt;" style="text;strokeColor=none;fillColor=default;align=left;verticalAlign=top;spacingLeft=4;spacingRight=4;overflow=hidden;rotatable=0;points=[[0,0.5],[1,0.5]];portConstraint=eastwest;whiteSpace=wrap;html=1;labelBackgroundColor=none;rounded=0;" parent="pZrwfSpqMCGqTQf54EzO-8" vertex="1">
          <mxGeometry y="52" width="584" height="26" as="geometry" />
        </mxCell>
        <mxCell id="pZrwfSpqMCGqTQf54EzO-11" value="" style="line;strokeWidth=1;fillColor=default;align=left;verticalAlign=middle;spacingTop=-1;spacingLeft=3;spacingRight=3;rotatable=0;labelPosition=right;points=[];portConstraint=eastwest;labelBackgroundColor=none;rounded=0;" parent="pZrwfSpqMCGqTQf54EzO-8" vertex="1">
          <mxGeometry y="78" width="584" height="8" as="geometry" />
        </mxCell>
        <mxCell id="pZrwfSpqMCGqTQf54EzO-12" value="+&amp;nbsp;&lt;span style=&quot;font-family: &amp;quot;JetBrains Mono&amp;quot;, monospace; font-size: 9.8pt; background-color: rgb(30, 30, 30); color: rgb(210, 168, 255);&quot;&gt;newInstance&lt;/span&gt;&lt;span style=&quot;font-family: &amp;quot;JetBrains Mono&amp;quot;, monospace; font-size: 9.8pt; background-color: rgb(30, 30, 30); color: rgb(201, 209, 217);&quot;&gt;(&lt;/span&gt;&lt;span style=&quot;font-family: &amp;quot;JetBrains Mono&amp;quot;, monospace; font-size: 9.8pt; background-color: rgb(30, 30, 30); color: rgb(255, 166, 87);&quot;&gt;Map&lt;/span&gt;&lt;span style=&quot;font-family: &amp;quot;JetBrains Mono&amp;quot;, monospace; font-size: 9.8pt; background-color: rgb(30, 30, 30); color: rgb(255, 123, 114);&quot;&gt;&amp;lt;&lt;/span&gt;&lt;span style=&quot;font-family: &amp;quot;JetBrains Mono&amp;quot;, monospace; font-size: 9.8pt; background-color: rgb(30, 30, 30); color: rgb(201, 209, 217);&quot;&gt;String, String&lt;/span&gt;&lt;span style=&quot;font-family: &amp;quot;JetBrains Mono&amp;quot;, monospace; font-size: 9.8pt; background-color: rgb(30, 30, 30); color: rgb(255, 123, 114);&quot;&gt;&amp;gt; &lt;/span&gt;&lt;span style=&quot;font-family: &amp;quot;JetBrains Mono&amp;quot;, monospace; font-size: 9.8pt; background-color: rgb(30, 30, 30); color: rgb(255, 166, 87);&quot;&gt;sqlSession&lt;/span&gt;&lt;span style=&quot;font-family: &amp;quot;JetBrains Mono&amp;quot;, monospace; font-size: 9.8pt; background-color: rgb(30, 30, 30); color: rgb(201, 209, 217);&quot;&gt;)&lt;/span&gt;&lt;span style=&quot;font-family: &amp;quot;JetBrains Mono&amp;quot;, monospace; font-size: 9.8pt; background-color: rgb(30, 30, 30); color: rgb(201, 209, 217);&quot;&gt;:&lt;/span&gt;&lt;span style=&quot;font-family: &amp;quot;JetBrains Mono&amp;quot;, monospace; font-size: 9.8pt; background-color: rgb(30, 30, 30); color: rgb(201, 209, 217);&quot;&gt;T&lt;/span&gt;" style="text;strokeColor=none;fillColor=default;align=left;verticalAlign=top;spacingLeft=4;spacingRight=4;overflow=hidden;rotatable=0;points=[[0,0.5],[1,0.5]];portConstraint=eastwest;whiteSpace=wrap;html=1;labelBackgroundColor=none;rounded=0;" parent="pZrwfSpqMCGqTQf54EzO-8" vertex="1">
          <mxGeometry y="86" width="584" height="26" as="geometry" />
        </mxCell>
        <mxCell id="pZrwfSpqMCGqTQf54EzO-13" value="Use" style="endArrow=open;endSize=12;dashed=1;html=1;rounded=0;entryX=0.5;entryY=1;entryDx=0;entryDy=0;exitX=0.5;exitY=0;exitDx=0;exitDy=0;edgeStyle=orthogonalEdgeStyle;" parent="1" source="pZrwfSpqMCGqTQf54EzO-8" target="pZrwfSpqMCGqTQf54EzO-1" edge="1">
          <mxGeometry x="-0.0037" width="160" relative="1" as="geometry">
            <mxPoint x="150" y="610" as="sourcePoint" />
            <mxPoint x="310" y="610" as="targetPoint" />
            <mxPoint as="offset" />
          </mxGeometry>
        </mxCell>
        <mxCell id="pZrwfSpqMCGqTQf54EzO-15" value="&lt;p style=&quot;margin:0px;margin-top:4px;text-align:center;&quot;&gt;&lt;i&gt;&amp;lt;&amp;lt;Interface&amp;gt;&amp;gt;&lt;/i&gt;&lt;br&gt;&lt;b&gt;Proxy&lt;/b&gt;&lt;/p&gt;&lt;hr size=&quot;1&quot; style=&quot;border-style:solid;&quot;&gt;&lt;p style=&quot;margin:0px;margin-left:4px;&quot;&gt;&lt;br&gt;&lt;br&gt;&lt;/p&gt;&lt;hr size=&quot;1&quot; style=&quot;border-style:solid;&quot;&gt;&lt;p style=&quot;margin:0px;margin-left:4px;&quot;&gt;+&amp;nbsp;&lt;span style=&quot;font-family: &amp;quot;JetBrains Mono&amp;quot;, monospace; font-size: 9.8pt; background-color: rgb(30, 30, 30); color: rgb(210, 168, 255);&quot;&gt;newProxyInstance&lt;/span&gt;&lt;span style=&quot;font-family: &amp;quot;JetBrains Mono&amp;quot;, monospace; font-size: 9.8pt; background-color: rgb(30, 30, 30); color: rgb(201, 209, 217);&quot;&gt;(ClassLoader &lt;/span&gt;&lt;span style=&quot;font-family: &amp;quot;JetBrains Mono&amp;quot;, monospace; font-size: 9.8pt; background-color: rgb(30, 30, 30); color: rgb(255, 166, 87);&quot;&gt;loader&lt;/span&gt;&lt;span style=&quot;font-family: &amp;quot;JetBrains Mono&amp;quot;, monospace; font-size: 9.8pt; background-color: rgb(30, 30, 30); color: rgb(201, 209, 217);&quot;&gt;,&lt;/span&gt;&lt;span style=&quot;font-family: &amp;quot;JetBrains Mono&amp;quot;, monospace; font-size: 9.8pt; background-color: rgb(30, 30, 30); color: rgb(201, 209, 217);&quot;&gt;Class&lt;/span&gt;&lt;span style=&quot;font-family: &amp;quot;JetBrains Mono&amp;quot;, monospace; font-size: 9.8pt; background-color: rgb(30, 30, 30); color: rgb(255, 123, 114);&quot;&gt;&amp;lt;?&amp;gt;&lt;/span&gt;&lt;span style=&quot;font-family: &amp;quot;JetBrains Mono&amp;quot;, monospace; font-size: 9.8pt; background-color: rgb(30, 30, 30); color: rgb(201, 209, 217);&quot;&gt;[] &lt;/span&gt;&lt;span style=&quot;font-family: &amp;quot;JetBrains Mono&amp;quot;, monospace; font-size: 9.8pt; background-color: rgb(30, 30, 30); color: rgb(255, 166, 87);&quot;&gt;interfaces&lt;/span&gt;&lt;span style=&quot;font-family: &amp;quot;JetBrains Mono&amp;quot;, monospace; font-size: 9.8pt; background-color: rgb(30, 30, 30); color: rgb(201, 209, 217);&quot;&gt;,&lt;/span&gt;&lt;span style=&quot;font-family: &amp;quot;JetBrains Mono&amp;quot;, monospace; font-size: 9.8pt; background-color: rgb(30, 30, 30); color: rgb(255, 166, 87);&quot;&gt;InvocationHandler h&lt;/span&gt;&lt;span style=&quot;font-family: &amp;quot;JetBrains Mono&amp;quot;, monospace; font-size: 9.8pt; background-color: rgb(30, 30, 30); color: rgb(201, 209, 217);&quot;&gt;):&lt;/span&gt;&lt;span style=&quot;font-family: &amp;quot;JetBrains Mono&amp;quot;, monospace; font-size: 9.8pt; background-color: rgb(30, 30, 30); color: rgb(201, 209, 217);&quot;&gt;Object&lt;/span&gt;&lt;/p&gt;" style="verticalAlign=top;align=left;overflow=fill;html=1;whiteSpace=wrap;labelBackgroundColor=none;fillColor=default;rounded=0;" parent="1" vertex="1">
          <mxGeometry x="-510" y="70" width="720" height="140" as="geometry" />
        </mxCell>
        <mxCell id="pZrwfSpqMCGqTQf54EzO-17" value="Use" style="endArrow=open;endSize=12;dashed=1;html=1;exitX=0;exitY=0.5;exitDx=0;exitDy=0;entryX=0.5;entryY=1;entryDx=0;entryDy=0;edgeStyle=orthogonalEdgeStyle;rounded=0;" parent="1" source="pZrwfSpqMCGqTQf54EzO-8" target="pZrwfSpqMCGqTQf54EzO-15" edge="1">
          <mxGeometry width="160" relative="1" as="geometry">
            <mxPoint x="740" y="600" as="sourcePoint" />
            <mxPoint x="900" y="600" as="targetPoint" />
          </mxGeometry>
        </mxCell>
        <mxCell id="i_ciqeai5TsaR4Eihteh-1" value="MapperRegistry" style="swimlane;fontStyle=1;align=center;verticalAlign=top;childLayout=stackLayout;horizontal=1;startSize=26;horizontalStack=0;resizeParent=1;resizeParentMax=0;resizeLast=0;collapsible=1;marginBottom=0;whiteSpace=wrap;html=1;labelBackgroundColor=none;fillColor=default;rounded=0;" vertex="1" parent="1">
          <mxGeometry x="250" y="870" width="584" height="164" as="geometry" />
        </mxCell>
        <mxCell id="i_ciqeai5TsaR4Eihteh-2" value="" style="text;strokeColor=none;fillColor=default;align=left;verticalAlign=top;spacingLeft=4;spacingRight=4;overflow=hidden;rotatable=0;points=[[0,0.5],[1,0.5]];portConstraint=eastwest;whiteSpace=wrap;html=1;labelBackgroundColor=none;rounded=0;" vertex="1" parent="i_ciqeai5TsaR4Eihteh-1">
          <mxGeometry y="26" width="584" height="26" as="geometry" />
        </mxCell>
        <mxCell id="i_ciqeai5TsaR4Eihteh-3" value="-&amp;nbsp;&lt;span style=&quot;font-family: &amp;quot;JetBrains Mono&amp;quot;, monospace; font-size: 9.8pt; background-color: rgb(30, 30, 30); color: rgb(201, 209, 217);&quot;&gt;knownMappers&lt;/span&gt;&lt;span style=&quot;background-color: initial;&quot;&gt;:&amp;nbsp;&lt;/span&gt;&lt;span style=&quot;font-family: &amp;quot;JetBrains Mono&amp;quot;, monospace; font-size: 9.8pt; background-color: rgb(30, 30, 30); color: rgb(255, 166, 87);&quot;&gt;Map&lt;/span&gt;&lt;span style=&quot;font-family: &amp;quot;JetBrains Mono&amp;quot;, monospace; font-size: 9.8pt; background-color: rgb(30, 30, 30); color: rgb(255, 123, 114);&quot;&gt;&amp;lt;&lt;/span&gt;&lt;span style=&quot;font-family: &amp;quot;JetBrains Mono&amp;quot;, monospace; font-size: 9.8pt; background-color: rgb(30, 30, 30); color: rgb(201, 209, 217);&quot;&gt;Class&lt;/span&gt;&lt;span style=&quot;font-family: &amp;quot;JetBrains Mono&amp;quot;, monospace; font-size: 9.8pt; background-color: rgb(30, 30, 30); color: rgb(255, 123, 114);&quot;&gt;&amp;lt;?&amp;gt;&lt;/span&gt;&lt;span style=&quot;font-family: &amp;quot;JetBrains Mono&amp;quot;, monospace; font-size: 9.8pt; background-color: rgb(30, 30, 30); color: rgb(201, 209, 217);&quot;&gt;, MapperProxyFactory&lt;/span&gt;&lt;span style=&quot;font-family: &amp;quot;JetBrains Mono&amp;quot;, monospace; font-size: 9.8pt; background-color: rgb(30, 30, 30); color: rgb(255, 123, 114);&quot;&gt;&amp;lt;?&amp;gt;&amp;gt;&lt;/span&gt;" style="text;strokeColor=none;fillColor=default;align=left;verticalAlign=top;spacingLeft=4;spacingRight=4;overflow=hidden;rotatable=0;points=[[0,0.5],[1,0.5]];portConstraint=eastwest;whiteSpace=wrap;html=1;labelBackgroundColor=none;rounded=0;" vertex="1" parent="i_ciqeai5TsaR4Eihteh-1">
          <mxGeometry y="52" width="584" height="26" as="geometry" />
        </mxCell>
        <mxCell id="i_ciqeai5TsaR4Eihteh-4" value="" style="line;strokeWidth=1;fillColor=default;align=left;verticalAlign=middle;spacingTop=-1;spacingLeft=3;spacingRight=3;rotatable=0;labelPosition=right;points=[];portConstraint=eastwest;labelBackgroundColor=none;rounded=0;" vertex="1" parent="i_ciqeai5TsaR4Eihteh-1">
          <mxGeometry y="78" width="584" height="8" as="geometry" />
        </mxCell>
        <mxCell id="i_ciqeai5TsaR4Eihteh-5" value="+&amp;nbsp;&lt;span style=&quot;font-family: &amp;quot;JetBrains Mono&amp;quot;, monospace; font-size: 9.8pt; background-color: rgb(30, 30, 30); color: rgb(210, 168, 255);&quot;&gt;getMapper&lt;/span&gt;&lt;span style=&quot;font-family: &amp;quot;JetBrains Mono&amp;quot;, monospace; font-size: 9.8pt; background-color: rgb(30, 30, 30); color: rgb(201, 209, 217);&quot;&gt;(Class&lt;/span&gt;&lt;span style=&quot;font-family: &amp;quot;JetBrains Mono&amp;quot;, monospace; font-size: 9.8pt; background-color: rgb(30, 30, 30); color: rgb(255, 123, 114);&quot;&gt;&amp;lt;T&amp;gt; &lt;/span&gt;&lt;span style=&quot;font-family: &amp;quot;JetBrains Mono&amp;quot;, monospace; font-size: 9.8pt; background-color: rgb(30, 30, 30); color: rgb(255, 166, 87);&quot;&gt;type&lt;/span&gt;&lt;span style=&quot;font-family: &amp;quot;JetBrains Mono&amp;quot;, monospace; font-size: 9.8pt; background-color: rgb(30, 30, 30); color: rgb(201, 209, 217);&quot;&gt;, &lt;/span&gt;&lt;span style=&quot;font-family: &amp;quot;JetBrains Mono&amp;quot;, monospace; font-size: 9.8pt; background-color: rgb(30, 30, 30); color: rgb(255, 166, 87);&quot;&gt;SqlSession sqlSession&lt;/span&gt;&lt;span style=&quot;font-family: &amp;quot;JetBrains Mono&amp;quot;, monospace; font-size: 9.8pt; background-color: rgb(30, 30, 30); color: rgb(201, 209, 217);&quot;&gt;)&lt;/span&gt;&lt;span style=&quot;font-family: &amp;quot;JetBrains Mono&amp;quot;, monospace; font-size: 9.8pt; background-color: rgb(30, 30, 30); color: rgb(201, 209, 217);&quot;&gt;:&lt;/span&gt;&lt;span style=&quot;font-family: &amp;quot;JetBrains Mono&amp;quot;, monospace; font-size: 9.8pt; background-color: rgb(30, 30, 30); color: rgb(201, 209, 217);&quot;&gt;T&lt;/span&gt;" style="text;strokeColor=none;fillColor=default;align=left;verticalAlign=top;spacingLeft=4;spacingRight=4;overflow=hidden;rotatable=0;points=[[0,0.5],[1,0.5]];portConstraint=eastwest;whiteSpace=wrap;html=1;labelBackgroundColor=none;rounded=0;" vertex="1" parent="i_ciqeai5TsaR4Eihteh-1">
          <mxGeometry y="86" width="584" height="26" as="geometry" />
        </mxCell>
        <mxCell id="i_ciqeai5TsaR4Eihteh-7" value="+&amp;nbsp;&lt;span style=&quot;font-family: &amp;quot;JetBrains Mono&amp;quot;, monospace; font-size: 9.8pt; background-color: rgb(30, 30, 30); color: rgb(210, 168, 255);&quot;&gt;addMapper&lt;/span&gt;&lt;span style=&quot;font-family: &amp;quot;JetBrains Mono&amp;quot;, monospace; font-size: 9.8pt; background-color: rgb(30, 30, 30); color: rgb(201, 209, 217);&quot;&gt;(Class&lt;/span&gt;&lt;span style=&quot;font-family: &amp;quot;JetBrains Mono&amp;quot;, monospace; font-size: 9.8pt; background-color: rgb(30, 30, 30); color: rgb(255, 123, 114);&quot;&gt;&amp;lt;T&amp;gt; &lt;/span&gt;&lt;span style=&quot;font-family: &amp;quot;JetBrains Mono&amp;quot;, monospace; font-size: 9.8pt; background-color: rgb(30, 30, 30); color: rgb(255, 166, 87);&quot;&gt;type&lt;/span&gt;&lt;span style=&quot;font-family: &amp;quot;JetBrains Mono&amp;quot;, monospace; font-size: 9.8pt; background-color: rgb(30, 30, 30); color: rgb(201, 209, 217);&quot;&gt;)&lt;/span&gt;&lt;span style=&quot;font-family: &amp;quot;JetBrains Mono&amp;quot;, monospace; font-size: 9.8pt; background-color: rgb(30, 30, 30); color: rgb(201, 209, 217);&quot;&gt;:void&lt;/span&gt;" style="text;strokeColor=none;fillColor=default;align=left;verticalAlign=top;spacingLeft=4;spacingRight=4;overflow=hidden;rotatable=0;points=[[0,0.5],[1,0.5]];portConstraint=eastwest;whiteSpace=wrap;html=1;labelBackgroundColor=none;rounded=0;" vertex="1" parent="i_ciqeai5TsaR4Eihteh-1">
          <mxGeometry y="112" width="584" height="26" as="geometry" />
        </mxCell>
        <mxCell id="i_ciqeai5TsaR4Eihteh-6" value="+&amp;nbsp;&lt;span style=&quot;font-family: &amp;quot;JetBrains Mono&amp;quot;, monospace; font-size: 9.8pt; background-color: rgb(30, 30, 30); color: rgb(210, 168, 255);&quot;&gt;addMappers&lt;/span&gt;&lt;span style=&quot;font-family: &amp;quot;JetBrains Mono&amp;quot;, monospace; font-size: 9.8pt; background-color: rgb(30, 30, 30); color: rgb(201, 209, 217);&quot;&gt;(String &lt;/span&gt;&lt;span style=&quot;font-family: &amp;quot;JetBrains Mono&amp;quot;, monospace; font-size: 9.8pt; background-color: rgb(30, 30, 30); color: rgb(255, 166, 87);&quot;&gt;packageName&lt;/span&gt;&lt;span style=&quot;font-family: &amp;quot;JetBrains Mono&amp;quot;, monospace; font-size: 9.8pt; background-color: rgb(30, 30, 30); color: rgb(201, 209, 217);&quot;&gt;)&lt;/span&gt;&lt;span style=&quot;background-color: rgb(30, 30, 30); color: rgb(201, 209, 217); font-family: &amp;quot;JetBrains Mono&amp;quot;, monospace; font-size: 9.8pt;&quot;&gt;:void&lt;/span&gt;" style="text;strokeColor=none;fillColor=default;align=left;verticalAlign=top;spacingLeft=4;spacingRight=4;overflow=hidden;rotatable=0;points=[[0,0.5],[1,0.5]];portConstraint=eastwest;whiteSpace=wrap;html=1;labelBackgroundColor=none;rounded=0;" vertex="1" parent="i_ciqeai5TsaR4Eihteh-1">
          <mxGeometry y="138" width="584" height="26" as="geometry" />
        </mxCell>
        <mxCell id="i_ciqeai5TsaR4Eihteh-8" value="Use" style="endArrow=open;endSize=12;dashed=1;html=1;rounded=0;exitX=0.5;exitY=0;exitDx=0;exitDy=0;entryX=0.5;entryY=1;entryDx=0;entryDy=0;" edge="1" parent="1" source="i_ciqeai5TsaR4Eihteh-1" target="pZrwfSpqMCGqTQf54EzO-8">
          <mxGeometry width="160" relative="1" as="geometry">
            <mxPoint x="-50" y="790" as="sourcePoint" />
            <mxPoint x="110" y="790" as="targetPoint" />
          </mxGeometry>
        </mxCell>
        <mxCell id="i_ciqeai5TsaR4Eihteh-12" value="binding" style="shape=umlFrame;whiteSpace=wrap;html=1;pointerEvents=0;" vertex="1" parent="1">
          <mxGeometry x="150" y="266" width="770" height="824" as="geometry" />
        </mxCell>
        <mxCell id="i_ciqeai5TsaR4Eihteh-13" value="frame" style="shape=umlFrame;whiteSpace=wrap;html=1;pointerEvents=0;" vertex="1" parent="1">
          <mxGeometry x="-590" y="20" width="1510" height="230" as="geometry" />
        </mxCell>
      </root>
    </mxGraphModel>
  </diagram>
</mxfile>
